<?xml version="1.0" standalone="no"?>
<!DOCTYPE svg PUBLIC "-//W3C//DTD SVG 20010904//EN"
 "http://www.w3.org/TR/2001/REC-SVG-20010904/DTD/svg10.dtd">
<svg version="1.0" xmlns="http://www.w3.org/2000/svg"
 width="500.000000pt" height="500.000000pt" viewBox="0 0 500.000000 500.000000"
 preserveAspectRatio="xMidYMid meet">
<metadata>
Created by potrace 1.16, written by Peter Selinger 2001-2019
</metadata>
<g transform="translate(0.000000,500.000000) scale(0.100000,-0.100000)"
fill="#000000" stroke="none">
<path d="M2180 4991 c-25 -3 -50 -10 -57 -14 -6 -4 -35 -10 -65 -13 -71 -7
-277 -59 -363 -91 -180 -66 -417 -175 -454 -207 -9 -7 -32 -22 -51 -31 -64
-33 -284 -197 -359 -269 -196 -187 -266 -267 -406 -461 -64 -89 -188 -316
-245 -450 -51 -119 -136 -411 -146 -503 -3 -26 -10 -63 -17 -82 -17 -49 -17
-691 0 -740 7 -19 14 -56 17 -82 7 -59 60 -264 87 -338 11 -30 24 -68 29 -85
17 -66 140 -316 216 -443 78 -130 210 -296 341 -429 151 -153 188 -186 291
-259 42 -31 87 -63 98 -71 105 -77 487 -273 532 -273 6 0 32 -9 58 -21 58 -24
290 -85 359 -93 28 -4 75 -12 105 -19 78 -17 625 -16 702 1 32 7 74 15 95 17
159 14 468 117 694 230 234 118 404 245 626 467 232 233 355 399 481 653 66
132 162 381 162 418 0 10 9 43 19 74 10 32 31 121 45 198 26 134 27 153 26
463 -1 177 -5 322 -10 322 -4 0 -10 15 -13 33 -3 17 -7 41 -10 52 -2 11 -8 43
-11 70 -4 28 -23 104 -42 169 -114 401 -321 758 -607 1046 -150 152 -204 202
-271 251 -28 21 -55 42 -61 46 -39 31 -122 87 -165 109 -27 14 -52 29 -55 33
-11 18 -360 181 -388 181 -7 0 -28 8 -47 19 -38 20 -295 87 -375 97 -27 3 -61
11 -75 17 -28 12 -617 19 -690 8z m600 -52 c149 -14 138 -12 315 -55 251 -60
546 -189 758 -333 38 -25 79 -53 91 -61 53 -35 188 -152 272 -235 74 -72 160
-170 246 -280 45 -57 59 -77 90 -125 38 -60 118 -199 118 -206 0 -2 10 -21 23
-42 13 -20 32 -61 42 -89 11 -29 22 -53 26 -53 4 0 9 -10 12 -22 5 -24 42
-129 56 -163 32 -73 76 -256 95 -395 32 -233 38 -353 26 -507 -20 -252 -24
-284 -49 -378 -11 -38 -26 -101 -34 -140 -18 -84 -57 -197 -97 -283 -17 -35
-30 -66 -30 -70 0 -10 -106 -216 -135 -262 -14 -22 -25 -44 -25 -50 0 -5 -4
-10 -8 -10 -4 0 -16 -15 -26 -32 -11 -18 -34 -52 -53 -75 -18 -23 -33 -45 -33
-49 0 -6 -76 -97 -150 -179 -96 -105 -250 -245 -335 -305 -87 -60 -203 -139
-234 -156 -111 -66 -404 -196 -501 -224 -25 -7 -56 -16 -70 -21 -14 -4 -54
-15 -90 -24 -36 -9 -81 -20 -101 -25 -128 -34 -515 -59 -646 -42 -48 7 -117
14 -153 17 -36 3 -81 8 -100 12 -64 10 -264 62 -322 83 -32 11 -62 20 -67 20
-6 0 -40 14 -76 30 -36 17 -68 30 -70 30 -2 0 -47 20 -99 45 -53 25 -98 45
-100 45 -3 0 -43 25 -90 55 -46 30 -87 55 -90 55 -4 0 -35 22 -69 48 -34 27
-73 54 -85 61 -44 24 -362 322 -362 340 0 4 -10 17 -23 28 -30 28 -77 86 -77
95 0 8 -29 45 -63 80 -10 10 -27 35 -38 56 -11 20 -38 66 -61 102 -22 36 -59
103 -81 150 -23 47 -45 86 -49 88 -4 2 -8 10 -8 18 0 7 -10 35 -21 61 -46 101
-72 181 -63 195 3 5 -3 18 -15 29 -12 11 -19 24 -17 28 3 5 -4 39 -15 77 -11
38 -24 96 -29 129 -5 33 -14 81 -19 106 -11 54 -26 320 -24 429 2 114 19 300
31 345 6 22 16 67 22 100 7 33 16 70 21 83 5 13 9 31 9 41 0 18 48 171 70 226
7 17 16 39 19 50 19 54 131 283 146 299 6 6 16 24 23 39 12 27 113 185 139
217 6 8 28 35 47 58 20 24 36 48 36 52 0 15 289 298 353 345 34 25 70 53 79
60 10 8 44 32 75 52 32 21 60 41 61 46 2 4 9 7 16 7 7 0 24 9 37 21 36 31 311
163 435 208 354 130 701 170 1114 130z"/>
<path d="M2264 4852 c-12 -2 -34 -17 -50 -33 -28 -29 -29 -35 -28 -117 0 -99
17 -143 64 -167 55 -29 131 -11 155 36 18 33 20 156 4 212 -15 55 -68 81 -145
69z"/>
<path d="M2568 4848 c-6 -15 -13 -149 -12 -226 1 -63 15 -81 76 -93 100 -19
148 26 148 140 0 32 5 82 10 111 8 41 7 56 -2 62 -21 12 -88 9 -92 -4 -2 -7
-8 -64 -14 -126 -5 -62 -13 -116 -17 -120 -11 -11 -25 22 -20 48 2 14 7 67 10
118 5 90 5 92 -18 92 -12 0 -32 3 -43 6 -13 3 -23 0 -26 -8z"/>
<path d="M2957 4814 c-4 -4 -7 -17 -7 -29 0 -11 -11 -59 -24 -105 -14 -47 -28
-100 -31 -119 -3 -19 -8 -38 -11 -43 -3 -5 9 -15 28 -22 45 -20 65 -6 74 49 8
58 19 51 22 -16 1 -29 6 -57 11 -62 5 -5 31 -12 57 -15 40 -4 46 -2 41 10 -3
9 -2 19 2 24 4 5 13 36 20 69 7 33 21 88 32 123 24 80 25 78 -12 91 -42 14
-65 14 -67 -1 -2 -25 -20 -90 -27 -96 -4 -4 -6 16 -5 43 4 77 2 82 -27 88 -16
3 -37 8 -48 12 -11 3 -24 3 -28 -1z"/>
<path d="M1917 4788 l-78 -21 6 -41 c3 -22 18 -86 32 -141 14 -55 26 -107 28
-115 2 -15 24 -16 74 -5 20 5 22 10 17 38 -21 96 -21 94 17 101 42 8 66 31 49
48 -7 7 -12 21 -12 31 0 14 -5 17 -17 12 -42 -16 -80 -17 -86 -2 -4 12 6 18
45 27 48 12 50 13 44 42 -3 17 -6 34 -6 39 0 13 -24 10 -113 -13z"/>
<path d="M3354 4692 c-6 -4 -16 -23 -24 -42 -7 -19 -35 -82 -62 -139 -47 -101
-51 -121 -23 -121 7 0 37 -11 67 -25 97 -45 132 -29 188 86 20 42 30 78 30
109 0 53 -10 66 -80 100 -69 33 -86 39 -96 32z"/>
<path d="M1350 4560 c-14 -11 -30 -20 -37 -20 -14 0 -13 -5 22 -125 39 -138
58 -195 63 -195 3 0 23 8 43 18 30 13 39 23 39 43 0 15 7 32 15 39 13 11 18
10 29 -6 14 -18 15 -18 61 4 l47 23 -47 52 c-189 208 -186 206 -235 167z"/>
<path d="M3685 4442 c-34 -31 -86 -80 -118 -109 -31 -28 -57 -53 -57 -56 0 -2
18 -17 40 -32 l40 -28 19 24 c19 23 19 23 40 5 15 -14 18 -23 11 -37 -15 -27
-13 -32 23 -56 54 -37 46 -48 118 152 22 61 37 120 34 132 -3 12 -18 25 -35
31 -16 6 -30 16 -30 21 0 23 -28 8 -85 -47z"/>
<path d="M2221 4459 c-161 -21 -476 -118 -591 -184 -14 -7 -44 -23 -68 -34
-60 -29 -204 -124 -292 -195 -141 -114 -310 -294 -406 -434 -53 -78 -114 -180
-114 -191 0 -8 -6 -22 -14 -30 -13 -16 -76 -160 -109 -251 -21 -59 -66 -230
-78 -300 -38 -224 -29 -581 20 -766 5 -22 12 -52 15 -69 14 -83 111 -327 173
-440 90 -162 143 -236 283 -395 155 -177 377 -342 612 -454 104 -50 289 -119
348 -130 14 -3 49 -12 78 -20 110 -30 306 -48 470 -43 191 7 277 18 424 56
118 30 269 80 303 99 11 6 58 29 105 50 47 22 116 60 154 86 38 25 71 46 73
46 6 0 90 63 143 107 58 48 300 292 300 302 0 5 11 21 25 37 101 116 247 394
306 579 12 39 30 97 41 130 33 106 52 286 52 485 -1 200 -14 329 -46 455 -11
44 -21 87 -23 95 -10 40 -48 146 -77 210 -6 14 -18 41 -26 60 -8 19 -20 44
-25 55 -38 72 -50 93 -67 120 -11 17 -23 38 -26 48 -4 9 -9 17 -13 17 -4 0
-17 17 -29 38 -11 21 -29 47 -39 59 -10 11 -31 38 -48 59 -106 136 -188 218
-315 319 -41 32 -77 62 -80 66 -10 13 -234 149 -246 149 -7 0 -19 6 -26 13
-31 29 -237 110 -373 146 -44 12 -96 26 -115 32 -99 27 -521 39 -679 18z m562
-55 c271 -42 539 -139 709 -255 15 -11 30 -19 33 -19 13 0 202 -139 250 -184
28 -25 61 -57 75 -70 87 -81 272 -324 328 -431 69 -133 134 -285 163 -383 41
-138 45 -161 64 -317 26 -204 29 -272 17 -359 -7 -44 -16 -117 -22 -161 -20
-155 -22 -170 -40 -220 -10 -27 -23 -72 -30 -100 -35 -140 -183 -424 -292
-560 -21 -27 -57 -72 -78 -100 -60 -79 -183 -192 -315 -289 -22 -17 -42 -33
-45 -37 -5 -6 -56 -38 -150 -92 -58 -33 -181 -92 -245 -116 -33 -13 -74 -30
-92 -37 -17 -8 -38 -14 -47 -14 -8 0 -40 -9 -71 -21 -31 -12 -59 -19 -61 -16
-3 3 -29 -1 -57 -9 -121 -33 -423 -49 -567 -31 -121 15 -287 46 -326 60 -22 8
-59 20 -84 27 -60 18 -152 55 -223 91 -32 16 -65 29 -73 29 -8 0 -14 4 -14 8
0 4 -19 18 -42 30 -81 43 -133 76 -141 89 -4 7 -15 13 -22 13 -8 0 -15 3 -15
8 0 4 -32 32 -71 62 -39 30 -81 64 -93 75 -13 11 -36 32 -52 46 -16 14 -55 58
-88 98 -32 39 -63 71 -67 71 -5 0 -9 5 -9 11 0 6 -20 36 -43 67 -48 63 -104
148 -131 202 -80 156 -108 221 -108 250 1 3 -6 12 -13 20 -8 9 -24 54 -35 100
-12 47 -28 108 -36 136 -8 28 -19 82 -24 120 -4 38 -14 103 -20 144 -14 84 -8
308 10 405 44 235 73 351 105 421 14 30 25 59 25 64 0 16 80 174 149 294 23
41 79 119 106 149 9 10 25 32 35 50 11 18 20 28 20 24 0 -5 19 13 41 40 45 51
179 185 179 177 0 -2 8 4 19 14 43 41 104 85 215 158 140 92 351 182 526 225
294 73 507 85 773 43z"/>
<path d="M1765 3833 c-115 -11 -254 -51 -335 -98 -14 -8 -41 -23 -61 -34 -100
-55 -260 -241 -313 -365 -63 -143 -79 -359 -42 -546 22 -114 88 -312 106 -318
10 -4 11 5 5 34 -15 78 -17 112 -20 289 -2 99 0 210 5 246 15 114 85 293 137
349 13 14 23 28 23 32 0 15 152 130 191 143 23 9 48 20 55 26 7 5 50 19 96 30
68 17 106 20 213 16 112 -3 142 -8 217 -34 80 -28 193 -90 243 -134 58 -51
116 -117 141 -160 16 -27 32 -49 35 -49 4 0 38 30 76 68 76 72 121 109 162
131 14 8 28 17 31 21 9 11 102 60 124 64 11 3 49 16 83 30 78 33 149 43 288
44 162 1 244 -22 360 -101 82 -55 176 -175 217 -277 92 -225 105 -466 37 -690
-38 -124 -116 -296 -155 -341 -8 -8 -14 -18 -14 -21 0 -7 -82 -131 -91 -138
-3 -3 -42 -50 -86 -105 -44 -55 -97 -116 -117 -134 -41 -39 -47 -58 -13 -40
35 19 225 206 297 294 105 127 200 284 257 421 7 16 20 47 29 69 59 143 75
394 36 567 -24 107 -63 212 -99 270 -13 21 -23 41 -23 46 0 14 -52 73 -133
153 -58 56 -101 87 -163 118 -46 23 -91 44 -101 46 -10 1 -47 11 -83 20 -89
24 -271 24 -365 1 -38 -10 -79 -19 -90 -21 -35 -5 -275 -119 -310 -147 -5 -5
-37 -26 -69 -48 l-60 -39 -50 47 c-28 26 -53 51 -55 55 -6 15 -172 118 -235
146 -103 46 -272 74 -381 64z"/>
<path d="M3311 3188 c-5 -13 -16 -53 -24 -89 -9 -36 -25 -81 -36 -99 l-20 -34
1 75 c1 76 -7 119 -22 119 -14 0 -40 -42 -40 -65 0 -12 -6 -30 -14 -40 -12
-17 -31 -18 -277 -17 -145 0 -269 1 -274 1 -6 1 -16 15 -22 31 -13 36 -37 32
-52 -8 -8 -24 -10 -20 -10 26 -1 59 -14 92 -36 92 -8 0 -17 -12 -21 -27 -15
-69 -47 -170 -59 -186 -19 -28 -26 -7 -24 78 1 42 -1 79 -5 82 -14 15 -41 -15
-56 -61 -9 -26 -22 -51 -30 -56 -8 -5 -61 -10 -118 -10 -78 0 -103 -3 -100
-12 6 -18 161 -23 216 -7 30 8 42 17 42 30 0 10 5 21 10 24 6 4 10 -21 10 -69
0 -77 12 -126 30 -126 6 0 13 8 16 18 3 9 10 25 15 34 5 10 9 24 9 31 0 7 9
32 20 54 11 22 24 60 29 83 14 63 23 62 21 -5 -3 -114 -1 -135 15 -135 16 0
32 26 37 61 6 39 17 50 38 39 20 -11 539 -14 578 -4 13 4 22 14 22 25 0 11 5
19 10 19 6 0 10 -31 10 -72 0 -87 7 -118 26 -118 16 0 34 39 34 74 0 13 9 35
20 49 11 14 23 40 26 59 11 66 15 79 22 74 5 -3 9 -40 11 -82 2 -77 6 -94 19
-94 9 0 28 46 37 88 7 36 13 39 30 16 10 -14 38 -16 205 -15 107 1 196 4 199
6 11 12 -16 14 -179 15 -95 1 -183 6 -195 10 -13 5 -25 20 -29 34 -9 35 -23
33 -40 -6 l-14 -33 -2 35 c-1 19 -2 43 -1 52 3 25 -17 58 -35 58 -8 0 -18 -10
-23 -22z"/>
<path d="M1649 2829 c-6 -12 -9 -37 -6 -55 5 -30 2 -36 -23 -49 -34 -17 -50
-63 -50 -141 0 -48 -6 -60 -33 -62 -5 0 -18 -11 -29 -24 l-20 -23 24 -3 c12
-1 55 -9 93 -17 39 -8 94 -16 123 -18 44 -4 52 -2 52 14 0 14 6 16 39 12 31
-4 39 -2 45 13 3 11 9 25 12 33 5 10 -1 13 -25 9 -36 -5 -57 18 -48 53 3 10 1
19 -5 19 -6 0 -8 9 -5 20 3 11 1 20 -3 20 -5 0 -10 28 -12 62 -3 58 -5 63 -28
68 -19 4 -25 12 -27 33 -4 55 -51 78 -74 36z"/>
<path d="M2348 2093 l-3 -68 -50 -1 c-90 -1 -85 2 -85 -63 0 -68 2 -69 88 -72
l52 -2 0 -58 c0 -84 1 -86 68 -81 31 2 59 6 61 8 2 2 5 32 5 66 l2 62 59 3
c85 5 85 5 85 66 0 70 -13 81 -85 75 -53 -5 -55 -4 -57 21 -1 14 -3 37 -4 51
-1 14 -3 33 -3 43 -1 14 -11 17 -66 17 l-64 0 -3 -67z"/>
<path d="M1012 4329 c-34 -28 -62 -54 -62 -58 0 -3 29 -42 65 -86 36 -44 79
-97 96 -117 17 -21 33 -38 37 -38 4 0 35 23 70 50 60 49 62 53 62 96 0 49 -20
86 -74 139 -83 81 -109 83 -194 14z"/>
<path d="M3961 4306 c-26 -28 -26 -38 -1 -54 20 -12 18 -16 -51 -97 -40 -47
-76 -85 -81 -85 -17 0 -7 -23 23 -51 31 -28 49 -36 49 -21 0 4 23 32 51 62 28
30 60 65 71 78 13 15 27 21 37 16 41 -16 50 -15 67 11 l17 26 -49 50 c-27 27
-63 58 -81 69 -31 18 -31 18 -52 -4z"/>
<path d="M795 4115 c-16 -9 -35 -23 -42 -32 -6 -8 -29 -33 -49 -56 l-38 -40
65 -59 c35 -32 89 -81 120 -108 l56 -49 26 27 c15 16 27 33 27 40 0 6 -19 29
-42 51 -36 33 -40 41 -26 46 12 5 30 -4 55 -24 21 -17 41 -31 45 -31 10 0 68
60 68 71 0 5 -6 9 -13 9 -7 0 -28 13 -48 29 -20 17 -48 33 -62 36 -15 4 -27
14 -27 24 -1 20 -29 54 -57 70 -27 14 -22 14 -58 -4z"/>
<path d="M4188 4048 c-24 -24 -74 -69 -113 -102 -38 -32 -72 -63 -74 -68 -5
-13 39 -58 57 -58 28 0 242 181 242 204 0 13 -51 66 -63 66 -4 0 -26 -19 -49
-42z"/>
<path d="M4284 3829 c-29 -16 -67 -46 -86 -67 -34 -38 -36 -45 -30 -113 1 -9
15 -31 31 -48 55 -59 157 -35 259 62 28 27 32 38 32 80 0 41 -5 54 -32 83 -28
29 -38 34 -78 33 -30 -1 -63 -11 -96 -30z"/>
<path d="M505 3763 c-14 -21 -25 -44 -25 -51 0 -7 52 -65 116 -130 l117 -117
10 28 c6 15 17 27 24 27 19 0 16 13 -8 44 -16 20 -18 30 -10 40 6 7 8 16 4 19
-3 4 3 7 15 7 11 0 24 -5 27 -10 8 -13 45 6 45 22 0 6 7 19 16 29 15 16 14 19
-13 32 -32 17 -265 97 -282 97 -5 0 -22 -17 -36 -37z"/>
<path d="M4525 3530 c-33 -16 -95 -45 -137 -64 -43 -20 -78 -39 -78 -41 0 -3
7 -21 14 -40 16 -38 28 -42 66 -22 58 30 62 25 16 -19 -38 -36 -46 -48 -35
-55 8 -5 11 -9 6 -9 -4 0 -1 -13 8 -30 16 -31 33 -37 63 -21 26 14 183 87 220
102 17 8 32 19 32 26 0 10 -18 59 -26 72 -2 1 -28 -9 -60 -23 -31 -14 -59 -26
-63 -26 -8 0 39 42 72 63 15 10 27 22 27 27 0 25 -36 90 -50 89 -8 0 -42 -13
-75 -29z"/>
<path d="M347 3475 c-9 -20 -17 -39 -17 -44 0 -5 23 -18 50 -30 48 -21 60 -34
42 -45 -5 -3 -26 1 -48 9 -21 8 -43 14 -49 14 -12 1 -45 -55 -45 -75 0 -8 8
-14 18 -14 9 0 55 -18 102 -40 47 -22 90 -40 96 -40 7 0 25 -7 40 -15 39 -20
54 -19 54 4 0 11 5 23 10 26 26 16 8 41 -45 64 -30 13 -55 27 -55 32 0 18 22
18 71 -1 59 -24 72 -18 83 36 6 29 4 32 -36 49 -24 10 -61 26 -83 36 -56 24
-164 69 -168 69 -2 0 -11 -16 -20 -35z"/>
<path d="M226 3095 c-28 -30 -41 -100 -27 -138 12 -31 58 -57 102 -57 25 0 42
10 80 50 32 34 53 48 64 44 22 -9 12 -29 -13 -27 -21 3 -25 -4 -37 -64 -6 -28
-4 -32 23 -37 66 -15 112 42 112 139 0 36 -5 47 -27 63 -64 44 -127 33 -176
-32 -29 -37 -67 -49 -67 -20 0 11 6 15 19 11 15 -4 22 2 30 26 20 55 15 67
-24 67 -26 0 -43 -7 -59 -25z"/>
<path d="M4672 3084 c-19 -7 -37 -25 -43 -41 -30 -76 -40 -93 -54 -93 -8 0
-15 7 -15 15 0 8 7 15 16 15 12 0 14 10 12 48 -3 40 -6 47 -26 50 -34 5 -82
-50 -82 -94 0 -48 22 -97 53 -117 26 -17 81 -22 111 -11 17 6 51 72 61 117 3
18 12 27 25 27 27 0 36 -20 11 -27 -17 -4 -21 -13 -21 -44 0 -25 5 -42 14 -45
19 -7 86 22 88 38 5 38 2 98 -4 98 -5 0 -8 6 -8 14 0 47 -78 76 -138 50z"/>
<path d="M220 2630 l0 -70 -65 0 -65 0 0 -60 c0 -66 -3 -64 78 -60 l52 2 0
-71 0 -71 65 0 65 0 0 64 c0 62 1 65 28 70 15 3 34 5 42 4 60 -5 75 15 63 85
l-6 37 -63 0 -64 0 0 70 0 70 -65 0 -65 0 0 -70z"/>
<path d="M4649 2688 c-1 -7 -2 -38 -3 -68 l-1 -55 -67 -3 -68 -3 0 -63 0 -64
65 5 c62 5 64 4 70 -20 4 -14 5 -44 3 -68 l-3 -44 68 -3 68 -3 -4 71 -4 70 68
0 69 0 0 60 0 60 -71 0 -71 0 4 68 3 67 -62 3 c-46 2 -63 -1 -64 -10z"/>
<path d="M4779 2121 c-1 -12 -3 -25 -4 -31 -1 -5 -3 -17 -4 -25 -1 -21 -30
-19 -139 7 -100 24 -106 22 -121 -30 -13 -44 -11 -45 204 -86 97 -19 125 -20
126 -3 1 6 4 30 6 52 3 22 5 60 6 85 l2 45 -37 3 c-32 3 -38 0 -39 -17z"/>
<path d="M350 2073 c-31 -21 -41 -37 -60 -93 -15 -44 -50 -69 -50 -36 0 9 7
16 16 16 13 0 15 7 9 38 -8 47 -16 55 -48 47 -67 -17 -74 -115 -13 -180 28
-29 40 -35 74 -35 57 0 86 30 101 103 10 45 16 57 32 57 23 0 24 -9 3 -24 -13
-10 -14 -17 -2 -54 11 -35 16 -41 33 -36 11 3 31 17 44 32 20 22 22 32 17 76
-11 89 -90 134 -156 89z"/>
<path d="M4454 1834 c-30 -72 -33 -67 113 -165 75 -49 141 -88 148 -85 7 2 15
24 19 47 5 33 3 45 -9 51 -8 5 -15 20 -15 34 0 23 4 25 31 22 28 -3 32 1 45
37 20 56 13 65 -48 65 -51 1 -167 13 -236 26 -30 6 -33 4 -48 -32z"/>
<path d="M520 1810 c-33 -18 -178 -79 -219 -91 -23 -7 -46 -19 -48 -27 -9 -23
24 -82 47 -82 11 0 20 4 20 9 0 5 17 12 38 16 46 8 46 8 49 -2 3 -8 -21 -20
-79 -42 -16 -6 -28 -17 -28 -24 0 -26 22 -77 33 -77 16 0 129 41 152 55 11 7
48 22 83 35 34 12 62 25 62 29 0 11 -26 80 -32 87 -4 3 -17 -1 -30 -9 -12 -8
-38 -18 -55 -22 -26 -5 -33 -3 -33 9 0 8 10 18 23 21 43 13 77 30 77 39 0 14
-33 86 -39 85 -3 0 -13 -4 -21 -9z"/>
<path d="M4343 1571 c-24 -49 -43 -91 -43 -94 0 -3 18 -14 39 -25 l39 -21 6
25 c4 13 13 24 20 24 8 0 60 -23 116 -51 105 -53 119 -54 120 -7 0 9 5 18 11
20 22 7 -4 37 -49 53 -26 10 -70 31 -99 47 -50 28 -51 30 -42 61 5 17 9 33 9
33 0 4 -64 24 -74 24 -6 0 -30 -40 -53 -89z"/>
<path d="M630 1514 c-19 -13 -40 -28 -46 -33 -6 -5 -26 -17 -45 -26 -19 -10
-48 -28 -65 -41 -17 -12 -43 -26 -58 -30 -29 -7 -34 -25 -11 -44 8 -7 15 -18
15 -25 0 -27 33 -25 80 4 39 24 49 27 54 15 3 -9 -9 -23 -35 -39 -22 -14 -42
-32 -46 -41 -7 -18 24 -84 40 -83 24 1 102 66 105 87 2 15 10 20 31 20 15 -1
40 5 56 13 32 15 70 75 55 84 -6 4 -10 14 -10 24 0 10 -9 26 -20 36 -11 10
-17 21 -14 26 2 5 -4 17 -16 29 -11 11 -20 24 -20 29 0 19 -16 17 -50 -5z"/>
<path d="M4230 1378 c-21 -34 -26 -58 -12 -58 4 0 66 -38 136 -85 71 -47 130
-84 131 -83 2 2 12 19 23 39 23 41 16 56 -38 84 -19 10 -37 21 -40 24 -9 11
-116 81 -124 81 -4 0 -14 7 -22 15 -22 22 -32 19 -54 -17z"/>
<path d="M795 1239 c-16 -17 -42 -38 -57 -47 -16 -9 -28 -20 -28 -24 0 -4 -19
-20 -42 -35 -62 -41 -78 -56 -78 -73 0 -23 46 -64 64 -57 17 7 150 108 205
155 36 32 36 51 2 91 -24 27 -30 26 -66 -10z"/>
<path d="M4134 1221 c-11 -5 -42 -33 -67 -62 -44 -51 -58 -79 -38 -79 7 0 195
-153 229 -187 17 -17 23 -13 47 33 l20 37 -45 38 c-25 22 -40 39 -34 39 14 0
44 64 44 93 0 55 -101 111 -156 88z"/>
<path d="M3915 995 c-43 -18 -76 -58 -82 -98 -3 -27 2 -41 23 -66 39 -47 65
-54 132 -37 58 16 72 14 72 -9 0 -18 -25 -26 -39 -12 -8 8 -19 3 -44 -21 l-32
-33 24 -20 c30 -25 67 -24 110 2 50 30 70 59 71 101 0 30 -7 44 -31 65 -43 39
-56 42 -119 27 -54 -12 -88 -5 -74 18 3 5 12 4 20 -3 13 -10 21 -7 47 19 l32
32 -21 20 c-26 26 -53 31 -89 15z"/>
<path d="M1080 953 c-66 -21 -94 -66 -80 -127 5 -21 13 -43 19 -49 19 -19 13
-57 -9 -57 -22 0 -25 7 -10 30 7 11 2 22 -17 42 -34 35 -61 36 -73 2 -17 -44
-11 -64 33 -109 32 -35 52 -46 85 -51 39 -6 45 -4 77 30 40 43 44 70 15 126
-24 47 -26 80 -5 80 18 0 19 -12 3 -28 -16 -16 15 -48 54 -57 24 -6 29 -3 39
21 21 56 -13 118 -79 145 -25 10 -29 10 -52 2z"/>
<path d="M3648 789 c-21 -10 -42 -28 -48 -38 -29 -54 4 -142 82 -220 60 -60
92 -65 153 -23 55 38 67 84 37 141 -12 23 -22 48 -22 56 0 8 -4 15 -9 15 -4 0
-29 20 -53 45 -52 51 -80 56 -140 24z"/>
<path d="M1240 655 c-67 -68 -110 -118 -105 -123 6 -5 27 -19 47 -31 l38 -23
10 27 c8 22 13 24 29 15 27 -14 35 -30 22 -43 -19 -19 -12 -34 24 -51 19 -9
35 -21 35 -26 0 -6 4 -10 10 -10 5 0 17 26 25 58 9 31 20 68 25 82 12 37 17
54 18 60 0 3 9 28 20 55 10 28 17 56 15 63 -5 13 -76 62 -90 62 -5 0 -60 -52
-123 -115z"/>
<path d="M3432 655 c-29 -13 -32 -18 -26 -42 4 -15 13 -36 22 -45 14 -17 11
-48 -7 -48 -5 0 -11 8 -14 18 -3 9 -14 31 -24 47 -10 17 -19 31 -19 33 -3 6
-84 -31 -84 -38 0 -4 26 -63 58 -131 33 -68 62 -132 65 -142 8 -21 25 -22 65
-1 28 13 31 19 26 42 -4 15 -16 40 -27 56 -16 23 -17 30 -6 37 17 11 49 -23
49 -51 0 -34 25 -43 72 -27 24 8 42 19 41 25 -6 25 -113 242 -129 261 -21 25
-20 24 -62 6z"/>
<path d="M1553 613 c-6 -16 -29 -71 -52 -124 -60 -144 -60 -145 -16 -163 48
-20 55 -20 55 2 1 9 7 31 15 47 14 29 15 29 9 -22 -6 -50 -5 -52 25 -68 31
-15 51 -13 51 5 0 14 42 81 47 76 3 -2 -5 -26 -16 -52 -12 -26 -20 -48 -19
-49 14 -10 74 -35 83 -35 12 0 29 35 26 52 0 4 12 36 28 70 39 86 63 159 57
174 -6 15 -69 44 -95 44 -21 0 -49 -32 -68 -77 -16 -41 -29 -37 -17 4 4 15 8
37 9 48 1 11 5 28 9 37 8 18 -31 41 -89 52 -26 6 -32 3 -42 -21z"/>
<path d="M1914 363 c-37 -76 -72 -141 -76 -144 -13 -8 11 -24 55 -36 31 -9 39
-9 43 3 2 8 6 21 9 29 7 23 50 3 51 -24 2 -30 12 -38 62 -46 l42 -7 0 140 c0
187 -3 199 -49 207 -20 3 -43 8 -52 11 -13 3 -32 -28 -85 -133z"/>
<path d="M2985 495 c-5 -2 -22 -6 -37 -9 -18 -4 -25 -11 -23 -23 9 -45 12
-103 6 -103 -8 0 -41 71 -41 89 0 8 -14 11 -42 9 l-43 -3 3 -45 c1 -25 9 -72
17 -105 8 -33 17 -80 20 -105 4 -24 9 -48 12 -53 2 -4 25 -7 49 -6 l44 3 -5
35 c-3 20 -8 51 -11 69 -6 29 -4 33 12 30 15 -2 20 -15 25 -56 4 -29 9 -56 13
-59 3 -3 26 -2 51 1 41 7 45 10 45 34 0 15 -7 56 -15 91 -9 35 -13 66 -10 69
3 3 0 11 -5 17 -6 7 -11 30 -12 51 -1 61 -17 81 -53 69z"/>
<path d="M2226 428 c-11 -58 -26 -292 -19 -298 4 -4 27 -10 51 -14 l42 -6 2
47 c1 27 2 56 1 66 0 10 8 17 19 17 16 0 18 -9 18 -65 0 -64 0 -65 28 -65 15
0 36 -3 47 -6 18 -5 20 0 22 59 2 42 -2 70 -11 82 -12 17 -12 21 1 31 18 12
26 99 12 125 -12 23 -54 37 -136 43 -70 6 -73 5 -77 -16z"/>
<path d="M2537 433 c-26 -4 -28 -8 -25 -41 3 -31 8 -37 35 -44 l31 -8 7 -115
7 -115 49 0 49 0 -1 63 c0 34 -4 86 -8 115 -4 29 -4 52 1 52 5 0 6 5 2 12 -4
7 -3 8 5 4 6 -4 19 -5 29 -2 14 5 17 14 14 46 l-4 40 -82 -1 c-44 -1 -94 -4
-109 -6z"/>
</g>
</svg>
